# xmcd
#
# Track frame offsets:
#	183
#	13783
#	26380
#	40978
#	53405
#	67033
#	78213
#	89293
#	102393
#	114985
#	127775
#	139285
#	149793
#	161340
#	174483
#	190678
#	204098
#	250973
#
# Disc length: 3687 seconds
# Revision: 18
# Processed by: cddbd v1.5.2PL0 Copyright (c) Steve Scherf et al.
# Submitted via: dBpowerAMP V12.0
#
DISCID=ea0e6512
DTITLE=Various Artist - Blues Masters, Vol. 3: Texas Blues
DYEAR=1992
DGENRE=Blues
TTITLE0=Blind Lemon Jefferson - Matchbox Blues
TTITLE1=Lillian Glinn - Cravin' a Man Blues
TTITLE2=Charles Brown - Driftin' Blues
TTITLE3=Lightnin' Hopkins - Short-Haired Woman
TTITLE4=T-Bone Walker - Call It Stormy Monday
TTITLE5=Frankie Lee Sims - Lucy Mae Blues
TTITLE6=Pee Wee Crayton - Texas Hop
TTITLE7=Percy Mayfield - Please Send Me Someone to Love
TTITLE8=Zu Zu Bollin - Why Don't You Eat Where You Slept Last Night?
TTITLE9=Willie Mae "Big Mama" Thornton - Hound Dog
TTITLE10=Clarence "Gatemouth" Brown - Okie Dokie Stomp
TTITLE11=Albert Collins and His Rhythm Rockers - The Freeze
TTITLE12=Mance Lipscomb - Ella Speed
TTITLE13=Johnny Copeland - Down on Bending Knees
TTITLE14=Freddy King - The Stumble
TTITLE15=The Fabulous Thunderbirds - C-Boy's Blues
TTITLE16=Stevie Ray Vaughn and Double Trouble - Flood Down in Texas
TTITLE17=Anson Funderburgh - Changing Neighborhoods
EXTD=
EXTT0=
EXTT1=
EXTT2=
EXTT3=
EXTT4=
EXTT5=
EXTT6=
EXTT7=
EXTT8=
EXTT9=
EXTT10=
EXTT11=
EXTT12=
EXTT13=
EXTT14=
EXTT15=
EXTT16=
EXTT17=
PLAYORDER=
